HIERARCHY
ROOT Hips
{
	OFFSET -0.001795 -0.223333 0.028219
	CHANNELS 6 Xposition Yposition Zposition Zrotation Yrotation Xrotation
	JOINT LeftUpLeg
	{
		OFFSET 0.069520 -0.091406 -0.006815
		CHANNELS 3 Zrotation Yrotation Xrotation
		JOINT LeftLeg
		{
			OFFSET 0.034277 -0.375199 -0.004496
			CHANNELS 3 Zrotation Yrotation Xrotation
			JOINT LeftFoot
			{
				OFFSET -0.013596 -0.397961 -0.043693
				CHANNELS 3 Zrotation Yrotation Xrotation
				JOINT LeftToe
				{
					OFFSET 0.026358 -0.055791 0.119288
					CHANNELS 3 Zrotation Yrotation Xrotation
					End Site
					{
						OFFSET 0.000000 0.000000 0.000000
					}
				}
			}
		}
	}
	JOINT RightUpLeg
	{
		OFFSET -0.067670 -0.090522 -0.004320
		CHANNELS 3 Zrotation Yrotation Xrotation
		JOINT RightLeg
		{
			OFFSET -0.038290 -0.382569 -0.008850
			CHANNELS 3 Zrotation Yrotation Xrotation
			JOINT RightFoot
			{
				OFFSET 0.015774 -0.398415 -0.042312
				CHANNELS 3 Zrotation Yrotation Xrotation
				JOINT RightToe
				{
					OFFSET -0.025372 -0.048144 0.123348
					CHANNELS 3 Zrotation Yrotation Xrotation
					End Site
					{
						OFFSET 0.000000 0.000000 0.000000
					}
				}
			}
		}
	}
	JOINT Spine
	{
		OFFSET -0.002533 0.108963 -0.026696
		CHANNELS 3 Zrotation Yrotation Xrotation
		JOINT Spine1
		{
			OFFSET 0.005487 0.135180 0.001092
			CHANNELS 3 Zrotation Yrotation Xrotation
			JOINT Spine2
			{
				OFFSET 0.001457 0.052922 0.025425
				CHANNELS 3 Zrotation Yrotation Xrotation
				JOINT Neck
				{
					OFFSET -0.002778 0.213870 -0.042857
					CHANNELS 3 Zrotation Yrotation Xrotation
					JOINT Head
					{
						OFFSET 0.005152 0.064970 0.051349
						CHANNELS 3 Zrotation Yrotation Xrotation
						End Site
						{
							OFFSET 0.000000 0.000000 0.000000
						}
					}
				}
				JOINT LeftShoulder
				{
					OFFSET 0.078845 0.121749 -0.034090
					CHANNELS 3 Zrotation Yrotation Xrotation
					JOINT LeftArm
					{
						OFFSET 0.090977 0.030469 -0.008868
						CHANNELS 3 Zrotation Yrotation Xrotation
						JOINT LeftForeArm
						{
							OFFSET 0.259612 -0.012772 -0.027456
							CHANNELS 3 Zrotation Yrotation Xrotation
							JOINT LeftHand
							{
								OFFSET 0.249234 0.008986 -0.001171
								CHANNELS 3 Zrotation Yrotation Xrotation
								End Site
								{
									OFFSET 0.000000 0.000000 0.000000
								}
							}
						}
					}
				}
				JOINT RightShoulder
				{
					OFFSET -0.081759 0.118833 -0.038615
					CHANNELS 3 Zrotation Yrotation Xrotation
					JOINT RightArm
					{
						OFFSET -0.096012 0.032551 -0.009143
						CHANNELS 3 Zrotation Yrotation Xrotation
						JOINT RightForeArm
						{
							OFFSET -0.253742 -0.013329 -0.021401
							CHANNELS 3 Zrotation Yrotation Xrotation
							JOINT RightHand
							{
								OFFSET -0.255298 0.007772 -0.005559
								CHANNELS 3 Zrotation Yrotation Xrotation
								End Site
								{
									OFFSET 0.000000 0.000000 0.000000
								}
							}
						}
					}
				}
			}
		}
	}
}
MOTION
Frames: 7
Frame Time: 0.050000
1.369061 0.839666 -0.132691 1.390235 -2.386919 4.600779 23.434087 4.384528 -36.516662 -0.272207 -0.849709 38.894593 -8.332848 -2.181606 27.269556 0.000000 0.000000 0.000000 -7.834599 2.119022 -43.846813 2.039079 2.006386 59.921318 -1.206137 -1.323459 -3.558368 0.000000 0.000000 0.000000 1.758318 -2.802036 57.705890 -6.074899 1.719721 -32.919866 -6.617265 0.120873 28.009464 14.112456 -5.743463 -31.647735 0.000000 0.000000 0.000000 -24.304951 -33.435884 19.235094 -11.757434 -20.981514 -1.226300 20.858411 -23.104811 -3.538180 0.000000 0.000000 0.000000 37.622936 12.411854 6.701573 34.620263 9.235628 -2.768093 6.581619 40.832466 4.017419 0.000000 0.000000 0.000000
1.414157 0.847672 -0.124681 0.198917 -4.507205 4.952613 21.443099 4.125136 -36.070922 0.066441 -0.719398 42.475705 -4.570594 1.859121 25.617812 0.000000 0.000000 0.000000 -9.343041 1.924448 -42.226401 2.216864 2.248267 55.867445 -0.793171 -1.664224 -0.796312 0.000000 0.000000 0.000000 1.622576 -1.997136 54.027586 -6.271741 1.747460 -31.569197 -7.004324 0.841311 26.986660 15.862438 -6.804328 -31.115150 0.000000 0.000000 0.000000 -27.273565 -32.282955 19.489570 -12.798243 -18.300168 -1.290298 18.468260 -23.721733 -3.132681 0.000000 0.000000 0.000000 41.760647 12.331400 6.685065 31.353879 7.179078 -2.900848 7.559298 42.586876 4.491461 0.000000 0.000000 0.000000
1.458334 0.855395 -0.117751 -0.839509 -6.675833 5.411441 19.962197 4.073949 -36.078526 -0.559800 0.062933 45.810213 -1.007372 6.042731 24.892339 0.000000 0.000000 0.000000 -10.447143 1.915537 -41.214847 2.125037 2.665074 53.092350 -0.862383 -2.610157 0.626645 0.000000 0.000000 0.000000 1.505891 -1.340932 50.667186 -8.025426 2.027527 -31.221928 -5.871570 1.285476 26.983855 16.711866 -7.174628 -31.869384 0.000000 0.000000 0.000000 -28.713175 -31.112894 19.408740 -14.669951 -16.934483 -1.400581 16.926487 -24.035903 -2.829454 0.000000 0.000000 0.000000 43.154175 11.878570 5.961319 30.449236 6.792476 -2.816144 7.902303 42.578933 4.586684 0.000000 0.000000 0.000000
1.499267 0.866706 -0.112709 -1.640791 -7.579529 5.529663 18.216594 3.546796 -35.239410 -1.324485 0.735813 46.463667 0.814953 7.184930 19.685666 0.000000 0.000000 0.000000 -11.774959 1.617524 -40.118864 2.466650 2.329700 48.961530 -0.566298 -4.319109 5.613144 0.000000 0.000000 0.000000 1.735209 -1.247005 46.885001 -8.557108 2.186210 -29.530330 -5.885626 1.295156 26.096627 16.570689 -7.101538 -31.754776 0.000000 0.000000 0.000000 -28.579951 -29.490979 18.479818 -17.296164 -16.043591 -1.487888 14.538688 -24.890126 -2.374166 0.000000 0.000000 0.000000 44.989394 11.128907 4.876518 30.337860 5.629099 -2.857479 7.860650 42.667843 4.579779 0.000000 0.000000 0.000000
1.534374 0.884068 -0.108785 -2.028759 -8.750556 5.815663 16.994225 3.070207 -33.081958 -3.563122 2.136686 43.521813 3.349183 10.278927 18.001803 0.000000 0.000000 0.000000 -12.329285 1.559577 -38.167338 2.332796 2.289849 44.583780 -0.613271 -5.538415 7.951441 0.000000 0.000000 0.000000 1.331207 -0.850609 43.734847 -8.242314 2.133864 -29.391820 -5.442845 2.124414 26.065816 15.975447 -6.656565 -31.977814 0.000000 0.000000 0.000000 -27.174345 -28.085586 17.133210 -21.257481 -15.543073 -1.603498 12.927379 -26.200786 -2.080079 0.000000 0.000000 0.000000 45.073041 10.472407 4.295411 30.591165 6.251010 -2.738245 7.947304 42.617526 4.626132 0.000000 0.000000 0.000000
1.563223 0.908084 -0.105227 -2.832628 -9.083208 6.692301 16.512071 2.625232 -30.294161 -5.012801 2.565144 37.731316 3.409613 10.258106 18.175602 0.000000 0.000000 0.000000 -12.793656 1.432925 -36.542975 3.363255 1.436894 39.526977 -0.615984 -7.141457 11.895317 0.000000 0.000000 0.000000 1.425305 -0.886414 39.884552 -7.779493 2.082957 -28.053555 -4.999895 2.227334 24.859377 14.897995 -6.088562 -31.530253 0.000000 0.000000 0.000000 -26.337441 -25.455193 15.334448 -24.766575 -14.656283 -1.788484 10.496548 -26.743732 -1.489649 0.000000 0.000000 0.000000 43.514586 9.218756 2.927465 33.451461 6.263719 -2.803721 8.522123 40.514990 4.586489 0.000000 0.000000 0.000000
1.587787 0.931777 -0.101467 -2.896507 -9.181026 7.179016 15.437132 2.025809 -27.588519 -6.998505 2.962791 31.350445 4.937627 12.687302 21.787834 0.000000 0.000000 0.000000 -12.564137 1.413175 -34.413306 4.357593 0.792044 35.853086 -1.026815 -8.699320 14.042885 0.000000 0.000000 0.000000 1.754123 -1.015595 36.909138 -7.862571 2.082619 -28.789582 -4.544609 2.528882 25.694723 15.037420 -6.222162 -31.615520 0.000000 0.000000 0.000000 -26.955279 -23.459167 14.246602 -26.742514 -13.945090 -2.046977 7.818275 -26.732806 -0.841812 0.000000 0.000000 0.000000 43.967650 8.562708 2.335249 33.995399 6.629071 -2.809420 9.377375 38.708218 4.665776 0.000000 0.000000 0.000000
